<svg width="52" height="52" viewBox="0 0 52 52" fill="none" xmlns="http://www.w3.org/2000/svg">
<path d="M26 0.75C39.9447 0.750263 51.249 12.0552 51.249 26C51.2488 39.9446 39.9445 51.2488 26 51.249C12.0552 51.249 0.750246 39.9447 0.75 26C0.75 12.0551 12.0551 0.75 26 0.75Z" fill="#01AFFF" stroke="black" stroke-width="1.5"/>
<path d="M37.2022 12.4004L37.2469 12.7624L36.7045 12.8773L36.6312 13.6509H37.2852L38.153 13.568L38.5996 13.0337L38.1241 12.8493L37.8626 12.5487L37.4701 11.9131L37.2852 11.0168L36.5451 11.165L36.341 11.4824V11.8381L36.6951 12.0814L37.2022 12.4004Z" fill="#46FF8D"/>
<path d="M36.574 12.6971L36.6121 12.2122L36.1816 12.0263L35.5771 12.1668L35.1257 12.8853V13.3526H35.6505L36.574 12.6971Z" fill="#46FF8D"/>
<path d="M24.1307 14.7603L23.9967 15.1032H23.3515V15.4365H23.5054C23.5054 15.4365 23.515 15.5067 23.5285 15.6L23.9233 15.5674L24.168 15.4135L24.2319 15.1049L24.5524 15.0769L24.6776 14.8177L24.3841 14.757L24.1307 14.7603Z" fill="#46FF8D"/>
<path d="M22.4673 15.3642L22.4434 15.6881L22.9107 15.6491L22.9584 15.3236L22.6782 15.1032L22.4673 15.3642Z" fill="#46FF8D"/>
<path d="M50.4904 25.7476C50.484 25.0305 50.4474 24.3201 50.3803 23.619C50.1521 21.2839 49.5955 19.0461 48.7565 16.9487C48.696 16.794 48.6386 16.6353 48.5731 16.4806C47.4583 13.8471 45.8919 11.4498 43.9778 9.38025C43.8534 9.24476 43.7259 9.11228 43.5982 8.97994C43.2346 8.60434 42.8661 8.23657 42.4785 7.88568C38.1241 3.91964 32.3383 1.49924 25.9988 1.49924C19.606 1.49924 13.7786 3.96439 9.4114 7.98864C8.39373 8.92654 7.45912 9.95217 6.60977 11.0479C3.41002 15.1885 1.49921 20.374 1.49921 25.9988C1.49921 39.5069 12.4898 50.4983 25.9988 50.4983C35.5021 50.4983 43.7514 45.0561 47.8123 37.1273C48.6799 35.4351 49.3563 33.6279 49.8124 31.733C49.9273 31.2544 50.0293 30.7696 50.1155 30.2799C50.3627 28.8883 50.4982 27.4574 50.4982 25.9973C50.4951 25.9159 50.4904 25.8321 50.4904 25.7476ZM45.8791 15.9557L46.0194 15.7962C46.206 16.1582 46.3831 16.5243 46.5474 16.8983L46.3129 16.8887L45.8775 16.9485V15.9556L45.8791 15.9557ZM42.3381 11.6794L42.3413 10.5852C42.7273 10.9936 43.0974 11.4138 43.4515 11.8501L43.0112 12.5064L41.4672 12.4912L41.3717 12.1698L42.3381 11.6794ZM12.7856 8.96237V8.92091H13.2753L13.3199 8.75261H14.1214V9.10267L13.8892 9.40963H12.7838V8.96223L12.7856 8.96237ZM13.5696 10.055C13.5696 10.055 14.0608 9.97125 14.1039 9.97125C14.1446 9.97125 14.1039 10.4618 14.1039 10.4618L12.9946 10.5319L12.784 10.2783L13.5696 10.055ZM47.4392 19.779H45.6463L44.552 18.9663L43.4037 19.0772V19.779H43.0402L42.6492 19.4999L40.657 18.996V17.7055L38.1337 17.9009L37.3506 18.3212H36.3505L35.8576 18.2718L34.6421 18.948V20.2184L32.1578 22.012L32.3637 22.7784H32.8685L32.7361 23.5081L32.3819 23.6389L32.3637 25.5449L34.5098 27.9917H35.4459L35.5018 27.8433H37.1829L37.6677 27.3951H38.6215L39.1448 27.9182L40.5627 28.065L40.3761 29.9536L41.9552 32.7376L41.1228 34.3262L41.1785 35.0728L41.834 35.7251V37.5228L42.6922 38.6776V40.1736H43.4322C39.3075 45.241 33.0232 48.4837 25.994 48.4837C13.5959 48.4837 3.50969 38.3999 3.50969 26.0003C3.50969 22.8796 4.1501 19.9049 5.30491 17.2021V16.5011L6.10869 15.5251C6.38778 14.9971 6.68692 14.4842 7.00678 13.9827L7.0411 14.391L6.10869 15.5251C5.8193 16.0721 5.54817 16.6305 5.30505 17.2022V18.4806L6.23732 18.9303V20.7088L7.13445 22.2376L7.86424 22.3485L7.95759 21.8245L7.10027 20.4982L6.93046 19.2094H7.43524L7.64898 20.5373L8.89151 22.3485L8.57165 22.9347L9.35882 24.1421L11.3207 24.6269V24.3104L12.1047 24.4213L12.0314 24.9811L12.647 25.0944L13.6008 25.3536L14.9462 26.8871L16.6631 27.0163L16.8329 28.4175L15.6551 29.239L15.6015 30.4903L15.4317 31.2575L17.1321 33.3853L17.2621 34.1156C17.2621 34.1156 17.8785 34.2816 17.9551 34.2816C18.0285 34.2816 19.3364 35.2737 19.3364 35.2737V39.1209L19.8022 39.2532L19.4873 41.0269L20.2711 42.0749L20.1245 43.8358L21.1628 45.6574L22.4939 46.8202L23.8297 46.8472L23.9604 46.415L22.9771 45.5874L23.0345 45.1775L23.2091 44.6717L23.2466 44.1582L22.5823 44.1389L22.2473 43.718L22.7993 43.1852L22.8743 42.7849L22.2571 42.6078L22.2929 42.2346L23.1718 42.1006L24.5075 41.4592L24.9557 40.6347L26.3554 38.8418L26.038 37.4398L26.4679 36.6932L27.7582 36.7314L28.6268 36.0422L28.9083 33.3388L29.8748 32.1201L30.0446 31.3371L29.1674 31.0563L28.5875 30.1033L26.608 30.0834L25.037 29.4861L24.9637 28.3656L24.4405 27.4493L23.0217 27.4294L22.1987 26.1414L21.4714 25.7865L21.4339 26.1789L20.1061 26.257L19.6213 25.5808L18.2376 25.3L17.0979 26.6183L15.3043 26.3122L15.1735 24.2905L13.8656 24.0664L14.388 23.0751L14.2381 22.5057L12.5178 23.6549L11.4364 23.5225L11.0497 22.6771L11.2882 21.8047L11.8838 20.7058L13.2564 20.0095H15.9089L15.9001 20.8182L16.854 21.2623L16.7773 19.881L17.4647 19.1895L18.8517 18.278L18.9482 17.6384L20.3303 16.1989L21.8002 15.3838L21.671 15.2777L22.6671 14.3406L23.0316 14.4371L23.1983 14.6461L23.5772 14.2257L23.6705 14.1851L23.2558 14.1261L22.8324 13.9906V13.5838L23.0564 13.4012H23.5478L23.775 13.5009L23.9696 13.8932L24.2081 13.8566V13.8231L24.2767 13.8454L24.9659 13.7395L25.0639 13.4013L25.4554 13.501V13.8671L25.0894 14.1167H25.0919L25.1437 14.5187L26.395 14.9022C26.395 14.9022 26.395 14.907 26.3981 14.9173L26.6835 14.8926L26.7036 14.3519L25.7139 13.9013L25.6596 13.6413L26.4794 13.3622L26.5169 12.5767L25.6596 12.0543L25.603 10.7273L24.425 11.3063H23.9935L24.1084 10.2966L22.5039 9.91936L21.8427 10.421V11.9474L20.6521 12.3255L20.1735 13.3199L19.6576 13.4029V12.1293L18.5372 11.9738L17.9749 11.6076L17.7498 10.783L19.7557 9.61061L20.7358 9.31148L20.8347 9.97097L21.3826 9.94146L21.4249 9.61047L21.9968 9.52824L22.0064 9.41265L21.7615 9.31134L21.7056 8.9621L22.4082 8.90307L22.8325 8.46198L22.8572 8.42931L22.8621 8.43096L22.9912 8.29697L24.4674 8.11109L25.119 8.66461L23.4075 9.57615L25.5863 10.0905L25.867 9.36158H26.8208L27.1558 8.72666L26.4827 8.55835V7.75444L24.3742 6.82052L22.9163 6.98882L22.0925 7.41782L22.1483 8.465L21.2894 8.33417L21.157 7.75595L21.9817 7.0079L20.4856 6.93446L20.0566 7.06529L19.87 7.57007L20.4307 7.66424L20.3191 8.2249L19.3669 8.28063L19.217 8.65472L17.8339 8.69275C17.8339 8.69275 17.7964 7.90874 17.7374 7.90874C17.684 7.90874 18.822 7.88883 18.822 7.88883L19.645 7.08574L19.196 6.8617L18.6003 7.44144L17.6089 7.3857L17.0044 6.55941H15.734L14.4077 7.5492H15.6224L15.7317 7.90572L15.415 8.20389L16.7613 8.2422L16.9654 8.72707L15.4509 8.6712L15.376 8.29711L14.4253 8.09132L13.9189 7.81223L12.7856 7.8217C16.4981 5.11741 21.0615 3.51685 25.9956 3.51685C31.6795 3.51685 36.8769 5.64141 40.839 9.1337L40.5742 9.61061L39.5358 10.0172L39.0973 10.4925L39.1993 11.0444L39.7338 11.1193L40.0575 11.9248L40.9778 11.5523L41.1325 12.6313H40.8518L40.0941 12.5189L39.2552 12.6592L38.4417 13.8092L37.2805 13.9903L37.1129 14.9856L37.6043 15.1012L37.4607 15.7416L36.3058 15.5096L35.2484 15.7416L35.0234 16.3309L35.2053 17.5678L35.8273 17.8582L36.872 17.8519L37.5753 17.788L37.7922 17.2282L38.8929 15.7974L39.6156 15.9458L40.3285 15.3006L40.4624 15.8055L42.2169 16.989L42.0031 17.2784L41.212 17.2361L41.5181 17.6668L42.0063 17.7752L42.5773 17.5368L42.5645 16.8501L42.8197 16.7234L42.6156 16.5072L41.4448 15.854L41.1354 14.9872H42.1099L42.4179 15.2958L43.26 16.0175L43.2934 16.8916L44.1627 17.8159L44.485 16.5486L45.088 16.22L45.1981 17.2567L45.7866 17.902L46.959 17.8829C47.187 18.4659 47.3912 19.0584 47.5667 19.6645L47.4392 19.779ZM14.8599 12.6316L15.4461 12.351L15.9789 12.4785L15.7972 13.1939L15.2229 13.375L14.8599 12.6316ZM17.9829 14.3144V14.777H16.6399L16.1335 14.6359L16.2595 14.3145L16.9047 14.0482H17.7884V14.3145L17.9829 14.3144ZM18.602 14.9596V15.407L18.2638 15.6239L17.8459 15.7029C17.8459 15.7029 17.8459 15.0298 17.8459 14.9595L18.602 14.9596ZM18.2231 14.777V14.2426L18.6847 14.6636L18.2231 14.777ZM18.4335 15.8544V16.2907L18.1113 16.6129H17.3959L17.5075 16.1224L17.8457 16.0929L17.9143 15.9246L18.4335 15.8544ZM16.6537 14.9596H17.3961L16.4422 16.2907L16.0507 16.0801L16.1353 15.5195L16.6537 14.9596ZM19.6929 15.7029V16.1375H18.9776L18.783 15.8544V15.4493H18.8388L19.6929 15.7029ZM19.0366 15.1032L19.2391 14.8895L19.582 15.1032L19.3076 15.3306L19.0366 15.1032ZM47.8029 20.9146L47.873 20.8308C47.9049 20.9585 47.9335 21.0861 47.9639 21.2137L47.8029 20.9146Z" fill="#46FF8D"/>
<path d="M5.30634 16.4996V17.2006C5.54946 16.6272 5.82073 16.0706 6.11012 15.5226L5.30634 16.4996Z" fill="#46FF8D"/>
</svg>
