<svg width="52" height="52" viewBox="0 0 52 52" fill="none" xmlns="http://www.w3.org/2000/svg">
<path d="M3.47923 36.8542C3.84682 37.7815 3.92866 38.7976 3.71422 39.7717L1.05173 47.9967C0.965939 48.4139 0.98812 48.846 1.11617 49.2521C1.24421 49.6582 1.47388 50.0249 1.78339 50.3174C2.09291 50.6099 2.472 50.8185 2.88472 50.9234C3.29745 51.0282 3.73013 51.026 4.14172 50.9167L12.6742 48.4217C13.5935 48.2394 14.5455 48.3191 15.4217 48.6517C20.7602 51.1448 26.8076 51.6722 32.4971 50.141C38.1865 48.6098 43.1523 45.1184 46.5184 40.2827C49.8845 35.4469 51.4345 29.5778 50.8949 23.7106C50.3553 17.8435 47.7609 12.3554 43.5693 8.21473C39.3778 4.07404 33.8584 1.54683 27.9851 1.07898C22.1119 0.611123 16.262 2.23269 11.4678 5.65758C6.67359 9.08247 3.24305 14.0906 1.78146 19.7983C0.319867 25.5061 0.921151 31.5466 3.47923 36.8542Z" fill="white" stroke="black" stroke-width="2" stroke-linecap="round" stroke-linejoin="round"/>
<ellipse cx="26" cy="26" rx="20" ry="20" fill="#01AFFF" fill-opacity="0.52"/>
<path d="M35.145 14.8983L35.1816 15.1939L34.7388 15.2877L34.6789 15.9192H35.2128L35.9212 15.8515L36.2858 15.4153L35.8977 15.2648L35.6842 15.0194L35.3638 14.5005L35.2128 13.7688L34.6087 13.8898L34.442 14.1489V14.4393L34.731 14.6379L35.145 14.8983Z" fill="#A3FFAE"/>
<path d="M34.6322 15.1405L34.6634 14.7447L34.3119 14.593L33.8184 14.7076L33.4499 15.2942V15.6756H33.8783L34.6322 15.1405Z" fill="#A3FFAE"/>
<path d="M24.4742 16.8248L24.3649 17.1047H23.8381V17.3768H23.9638C23.9638 17.3768 23.9716 17.4341 23.9826 17.5103L24.3049 17.4836L24.5047 17.358L24.5568 17.1061L24.8185 17.0832L24.9207 16.8716L24.6811 16.8221L24.4742 16.8248Z" fill="#A3FFAE"/>
<path d="M23.1163 17.3178L23.0969 17.5822L23.4783 17.5504L23.5172 17.2847L23.2885 17.1047L23.1163 17.3178Z" fill="#A3FFAE"/>
<path d="M45.9928 25.7942C45.9875 25.2088 45.9577 24.6289 45.9029 24.0565C45.7166 22.1503 45.2622 20.3234 44.5774 18.6113C44.5279 18.485 44.4811 18.3554 44.4276 18.2291C43.5175 16.0793 42.2388 14.1223 40.6763 12.4328C40.5747 12.3222 40.4706 12.2141 40.3664 12.1061C40.0695 11.7994 39.7687 11.4992 39.4524 11.2128C35.8977 7.97511 31.1744 5.99924 25.9992 5.99924C20.7806 5.99924 16.0234 8.01165 12.4583 11.2968C11.6275 12.0625 10.8645 12.8997 10.1712 13.7942C7.55908 17.1743 5.99921 21.4075 5.99921 25.9992C5.99921 37.0265 14.9713 45.9992 25.9992 45.9992C33.7572 45.9992 40.4915 41.5565 43.8065 35.0839C44.5148 33.7025 45.067 32.2272 45.4393 30.6803C45.5331 30.2897 45.6163 29.8938 45.6867 29.4941C45.8885 28.358 45.9992 27.19 45.9992 25.998C45.9966 25.9315 45.9928 25.8632 45.9928 25.7942ZM42.2284 17.8007L42.3429 17.6705C42.4952 17.966 42.6398 18.2649 42.7739 18.5701L42.5825 18.5623L42.2271 18.6112V17.8006L42.2284 17.8007ZM39.3377 14.3098L39.3403 13.4165C39.6554 13.7499 39.9576 14.0929 40.2466 14.4491L39.8872 14.9849L38.6268 14.9724L38.5488 14.7101L39.3377 14.3098ZM15.2128 12.0917V12.0579H15.6125L15.649 11.9205H16.3032V12.2062L16.1137 12.4568H15.2113V12.0916L15.2128 12.0917ZM15.8528 12.9837C15.8528 12.9837 16.2538 12.9153 16.289 12.9153C16.3221 12.9153 16.289 13.3157 16.289 13.3157L15.3834 13.373L15.2114 13.166L15.8528 12.9837ZM43.5019 20.9218H42.0383L41.145 20.2583L40.2076 20.3489V20.9218H39.9108L39.5917 20.6939L37.9653 20.2825V19.2291L35.9055 19.3886L35.2662 19.7317H34.4497L34.0474 19.6914L33.0552 20.2434V21.2805L31.0271 22.7447L31.1952 23.3703H31.6072L31.4992 23.966L31.2101 24.0728L31.1952 25.6287L32.9471 27.6261H33.7113L33.7569 27.505H35.1293L35.525 27.1391H36.3037L36.7309 27.5662L37.8883 27.686L37.736 29.2277L39.0252 31.5004L38.3456 32.7973L38.3911 33.4067L38.9262 33.9393V35.4068L39.6267 36.3495V37.5707H40.2309C36.8637 41.7075 31.7335 44.3546 25.9953 44.3546C15.8742 44.3546 7.64045 36.1228 7.64045 26.0005C7.64045 23.4529 8.16324 21.0245 9.10596 18.8181V18.2459L9.76212 17.4491C9.98996 17.0181 10.2342 16.5994 10.4953 16.19L10.5233 16.5233L9.76212 17.4491C9.52588 17.8957 9.30455 18.3515 9.10607 18.8183V19.8618L9.86713 20.229V21.6808L10.5995 22.9288L11.1953 23.0193L11.2715 22.5916L10.5716 21.5089L10.433 20.4568H10.845L11.0195 21.5408L12.0339 23.0193L11.7727 23.4979L12.4153 24.4835L14.0169 24.8793V24.6209L14.6569 24.7115L14.5971 25.1685L15.0996 25.2609L15.8782 25.4725L16.9765 26.7244L18.3782 26.8299L18.5168 27.9738L17.5552 28.6444L17.5115 29.6659L17.3729 30.2921L18.761 32.0292L18.8671 32.6254C18.8671 32.6254 19.3703 32.7609 19.4328 32.7609C19.4928 32.7609 20.5605 33.5708 20.5605 33.5708V36.7114L20.9407 36.8194L20.6836 38.2673L21.3235 39.1229L21.2038 40.5604L22.0514 42.0474L23.138 42.9966L24.2286 43.0187L24.3353 42.6659L23.5325 41.9902L23.5793 41.6556L23.7219 41.2427L23.7525 40.8235L23.2102 40.8078L22.9368 40.4642L23.3874 40.0293L23.4486 39.7025L22.9447 39.5579L22.974 39.2532L23.6914 39.1438L24.7818 38.6202L25.1477 37.9471L26.2904 36.4835L26.0313 35.339L26.3822 34.7296L27.4355 34.7607L28.1446 34.1981L28.3744 31.9912L29.1634 30.9964L29.302 30.3571L28.5859 30.1279L28.1125 29.35L26.4966 29.3337L25.2141 28.8461L25.1542 27.9314L24.7272 27.1834L23.5689 27.1671L22.8971 26.1157L22.3033 25.826L22.2727 26.1463L21.1888 26.21L20.793 25.658L19.6635 25.4288L18.7331 26.505L17.2689 26.2551L17.1621 24.6047L16.0944 24.4218L16.5208 23.6125L16.3985 23.1477L14.9941 24.0858L14.1114 23.9778L13.7957 23.2876L13.9903 22.5754L14.4766 21.6783L15.5971 21.1099H17.7624L17.7553 21.7701L18.5339 22.1327L18.4714 21.005L19.0325 20.4406L20.1647 19.6964L20.2435 19.1743L21.3718 17.9991L22.5717 17.3338L22.4663 17.2472L23.2795 16.4822L23.577 16.561L23.713 16.7315L24.0224 16.3884L24.0986 16.3552L23.76 16.307L23.4144 16.1964V15.8644L23.5973 15.7153H23.9984L24.1838 15.7967L24.3428 16.117L24.5374 16.087V16.0597L24.5935 16.078L25.156 15.9915L25.2361 15.7154L25.5557 15.7968V16.0957L25.2569 16.2994H25.2589L25.3012 16.6275L26.3227 16.9407C26.3227 16.9407 26.3227 16.9446 26.3252 16.953L26.5582 16.9328L26.5746 16.4914L25.7667 16.1236L25.7223 15.9113L26.3916 15.6835L26.4222 15.0422L25.7223 14.6158L25.6761 13.5325L24.7145 14.0052H24.3623L24.4561 13.1809L23.1462 12.8729L22.6065 13.2824V14.5285L21.6345 14.8371L21.2438 15.649L20.8227 15.7167V14.677L19.908 14.55L19.449 14.2511L19.2653 13.578L20.9027 12.6209L21.7029 12.3767L21.7836 12.9151L22.2308 12.891L22.2654 12.6208L22.7322 12.5537L22.7401 12.4593L22.5401 12.3766L22.4945 12.0915L23.0681 12.0433L23.4145 11.6832L23.4347 11.6565L23.4386 11.6579L23.544 11.5485L24.7491 11.3968L25.281 11.8486L23.8838 12.5928L25.6625 13.0127L25.8917 12.4176H26.6703L26.9438 11.8993L26.3943 11.7619V11.1056L24.673 10.3432L23.4829 10.4806L22.8103 10.8308L22.8559 11.6857L22.1547 11.5789L22.0467 11.1069L22.7199 10.4962L21.4986 10.4362L21.1484 10.543L20.9961 10.9551L21.4538 11.032L21.3626 11.4897L20.5853 11.5352L20.463 11.8406L19.3339 11.8716C19.3339 11.8716 19.3033 11.2316 19.2551 11.2316C19.2115 11.2316 20.1405 11.2153 20.1405 11.2153L20.8124 10.5597L20.4458 10.3768L19.9595 10.8501L19.1502 10.8046L18.6568 10.1301H17.6197L16.537 10.9381H17.5286L17.6178 11.2291L17.3592 11.4725L18.4583 11.5038L18.6249 11.8996L17.3886 11.854L17.3274 11.5486L16.5513 11.3806L16.1379 11.1528L15.2128 11.1605C18.2434 8.9529 21.9687 7.6463 25.9967 7.6463C30.6366 7.6463 34.8795 9.38067 38.1139 12.2316L37.8977 12.6209L37.0501 12.9528L36.6921 13.3408L36.7754 13.7913L37.2117 13.8525L37.4759 14.51L38.2272 14.206L38.3535 15.0868H38.1244L37.5058 14.9951L36.821 15.1096L36.1569 16.0484L35.209 16.1962L35.0722 17.0087L35.4733 17.1031L35.356 17.6259L34.4133 17.4365L33.5501 17.6259L33.3664 18.107L33.5149 19.1167L34.0227 19.3537L34.8755 19.3486L35.4496 19.2964L35.6267 18.8394L36.5252 17.6715L37.1152 17.7926L37.6971 17.2659L37.8065 17.6781L39.2388 18.6442L39.0643 18.8805L38.4184 18.8459L38.6683 19.1975L39.0668 19.286L39.5329 19.0914L39.5225 18.5308L39.7308 18.4274L39.5642 18.2509L38.6085 17.7176L38.3559 17.01H39.1515L39.4028 17.262L40.0903 17.8511L40.1176 18.5646L40.8272 19.3192L41.0903 18.2847L41.5826 18.0164L41.6724 18.8627L42.1529 19.3895L43.1099 19.3739C43.2961 19.8498 43.4627 20.3335 43.6061 20.8283L43.5019 20.9218ZM16.9061 15.0871L17.3847 14.858L17.8196 14.9621L17.6712 15.5461L17.2024 15.6939L16.9061 15.0871ZM19.4556 16.4608V16.8385H18.3592L17.9458 16.7233L18.0487 16.4609L18.5754 16.2435H19.2968V16.4609L19.4556 16.4608ZM19.9609 16.9875V17.3527L19.6849 17.5298L19.3437 17.5942C19.3437 17.5942 19.3437 17.0448 19.3437 16.9874L19.9609 16.9875ZM19.6516 16.8385V16.4022L20.0285 16.7459L19.6516 16.8385ZM19.8234 17.718V18.0741L19.5604 18.3371H18.9764L19.0675 17.9367L19.3435 17.9126L19.3995 17.7752L19.8234 17.718ZM18.3704 16.9875H18.9765L18.1978 18.0741L17.8782 17.9022L17.9472 17.4445L18.3704 16.9875ZM20.8515 17.5942V17.9491H20.2675L20.1087 17.718V17.3873H20.1542L20.8515 17.5942ZM20.3157 17.1047L20.481 16.9302L20.7609 17.1047L20.5369 17.2903L20.3157 17.1047ZM43.7988 21.8488L43.8561 21.7804C43.8821 21.8847 43.9055 21.9888 43.9303 22.093L43.7988 21.8488Z" fill="#A3FFAE"/>
<path d="M9.10712 18.2447V18.8169C9.30559 18.3488 9.52704 17.8945 9.76328 17.4471L9.10712 18.2447Z" fill="#A3FFAE"/>
<path d="M48.4999 7.25C48.4999 9.32107 46.821 14.75 44.7499 14.75C42.6789 14.75 40.9999 9.32107 40.9999 7.25C40.9999 5.17893 42.6789 3.5 44.7499 3.5C46.821 3.5 48.4999 5.17893 48.4999 7.25Z" fill="#FF0000"/>
<ellipse cx="44.7499" cy="7.25" rx="1.25" ry="1.25" fill="#D9D9D9"/>
</svg>
